<svg width="512" height="512" viewBox="0 0 512 512" fill="none" xmlns="http://www.w3.org/2000/svg">
<g clip-path="url(#clip0_87_251)">
<path d="M199.68 17.3599C179.2 17.3599 160.4 29.4399 151.6 47.5199C174.32 56.3999 186.32 79.7599 181.04 107.68C180.32 111.52 176.96 114.16 173.2 114.16C172.72 114.16 172.24 114.16 171.76 114C167.36 113.2 164.48 109.04 165.36 104.72C168.88 85.9199 162.16 65.1199 139.36 60.5599H139.28C138.8 60.4799 138.32 60.3199 137.92 60.1599C137.84 60.1599 137.68 60.1599 137.6 60.0799C130.56 56.8799 123.2 55.2799 115.6 55.2799C86.08 55.2799 62 79.3599 62 108.88C62 116.16 63.52 123.28 66.4 130.08C66.48 130.32 66.56 130.56 66.64 130.8C70.8 141.36 81.52 146.48 91.76 142.72C95.84 141.2 100.48 143.36 102 147.44C103.52 151.6 101.36 156.24 97.2 157.76C93.2 159.2 89.12 159.92 85.04 159.92C72.88 159.92 61.44 153.52 54.8 142.72C31.84 149.12 15.84 170 15.84 194.32C15.84 203.2 18 211.84 22.16 219.52C41.76 210.88 64.96 217.44 77.92 236.24C80.4 239.92 79.44 244.88 75.84 247.36C74.4 248.32 72.88 248.8 71.28 248.8C68.72 248.8 66.24 247.6 64.72 245.36C55.2 231.44 37.36 227.68 23.92 236.72H23.84C23.68 236.88 23.6 236.96 23.44 237.04C8.96 245.6 0 261.2 0 277.84C0 300.64 16.24 320.32 38.64 324.56C41.44 325.04 43.76 327.12 44.72 329.84C45.6 332.64 44.96 335.68 42.96 337.84C33.84 347.68 28.88 360.64 28.88 374.16C28.88 403.6 52.72 427.6 82.08 427.76C91.92 425.52 116.96 416.72 119.28 404.8C120.08 400.48 124.24 397.68 128.64 398.48C132.96 399.36 135.84 403.6 134.96 407.92C131.12 427.84 104.64 437.92 90.64 442C91.28 467.68 112.24 488.24 138.08 488.24C145.92 488.24 153.6 486.24 160.56 482.56H160.64C161.2 481.76 162 481.2 162.96 480.72C177.92 473.12 184 455.84 176.88 441.36C174.88 437.36 176.48 432.56 180.48 430.64C184.4 428.64 189.2 430.24 191.2 434.24C200.4 452.8 195.68 474.16 180.88 487.6C188.32 492.16 196.88 494.64 205.84 494.64C224.96 494.64 242.48 482.88 249.76 465.2V271.92C239.6 262.64 225.28 261.36 213.92 269.04C210.24 271.52 205.28 270.64 202.8 266.96C200.32 263.28 201.28 258.32 204.96 255.84C218.64 246.56 235.6 245.76 249.76 252.8V176.32C239.6 167.04 225.28 165.76 213.84 173.36C210.16 175.84 205.2 174.8 202.8 171.2C200.32 167.52 201.28 162.56 204.96 160.08C218.64 150.88 235.6 150.16 249.76 157.12V51.9999C242 31.1999 222.08 17.3599 199.68 17.3599ZM119.92 350.64C119.44 350.64 118.88 350.56 118.4 350.48C93.76 345.68 78.16 322.16 82.88 296.88C83.68 292.56 87.84 289.68 92.24 290.48C96.56 291.28 99.44 295.44 98.56 299.84C95.52 316.32 105.52 331.68 121.44 334.8C125.76 335.6 128.64 339.84 127.76 344.16C127.04 348 123.68 350.64 119.92 350.64ZM115.12 209.28C111.44 211.76 106.48 210.8 104 207.12C101.52 203.44 102.48 198.48 106.16 196C126.96 182 154.64 187.6 169.2 208.8C171.68 212.48 170.72 217.44 167.12 219.92C165.68 220.88 164.16 221.36 162.56 221.36C160 221.36 157.52 220.08 156 217.84C146.48 204 128.56 200.24 115.12 209.28ZM207.36 332.8C208 337.12 204.96 341.2 200.56 341.84C198.32 342.16 196.16 342.32 194 342.32C171.84 342.32 152.88 326.08 149.36 302.96C148.72 298.56 151.68 294.48 156.08 293.84C160.4 293.12 164.56 296.16 165.2 300.56C167.68 317.12 182.32 328.24 198.32 326C202.64 325.28 206.72 328.4 207.36 332.8Z" fill="#C99B51"/>
<path d="M311.039 124.96L321.599 107.76C323.519 108.16 325.519 108.48 327.599 108.48C344.239 108.48 357.759 94.9597 357.759 78.3197C357.759 61.7597 344.239 48.2397 327.599 48.2397C310.959 48.2397 297.439 61.7597 297.439 78.3197C297.439 85.3597 299.919 91.5997 303.919 96.7997L296.319 109.04H263.279V129.84H302.159C305.839 129.84 309.199 128 311.039 124.96Z" fill="#C99B51"/>
<path d="M378.239 180.32L407.439 146.16C409.039 144.24 409.919 141.84 409.919 139.44V106.48C421.359 102.24 429.679 91.2797 429.679 78.3197C429.679 61.7597 416.079 48.2397 399.519 48.2397C382.879 48.2397 369.359 61.7597 369.359 78.3197C369.359 91.2797 377.599 102.32 389.119 106.48V135.6L365.519 163.2H263.359V184H370.319C373.359 184 376.239 182.64 378.239 180.32Z" fill="#C99B51"/>
<path d="M385.199 226.4L426.399 179.12H453.679C457.919 190.56 468.879 198.8 481.839 198.8C498.479 198.8 511.999 185.28 511.999 168.64C511.999 152.08 498.479 138.56 481.839 138.56C468.799 138.56 457.839 146.88 453.679 158.32H421.679C418.639 158.32 415.759 159.6 413.759 161.84L372.559 209.12H263.359V229.92H377.359C380.399 229.92 383.279 228.64 385.199 226.4Z" fill="#C99B51"/>
<path d="M327.679 403.52C325.599 403.52 323.599 403.84 321.679 404.24L311.119 387.04C309.199 384 305.919 382.16 302.319 382.16H263.439V402.96H296.479L303.999 415.2C299.999 420.32 297.519 426.64 297.519 433.68C297.519 450.24 311.039 463.76 327.679 463.76C344.319 463.76 357.839 450.24 357.839 433.68C357.839 417.04 344.319 403.52 327.679 403.52Z" fill="#C99B51"/>
<path d="M409.919 405.52V372.56C409.919 370.16 409.039 367.76 407.439 365.76L378.239 331.6C376.239 329.36 373.359 328 370.319 328H263.359V348.8H365.519L389.119 376.4V405.52C377.599 409.76 369.359 420.72 369.359 433.68C369.359 450.24 382.879 463.76 399.519 463.76C416.079 463.76 429.679 450.24 429.679 433.68C429.679 420.72 421.359 409.68 409.919 405.52Z" fill="#C99B51"/>
<path d="M481.839 313.2C468.879 313.2 457.919 321.44 453.679 332.88H426.399L385.199 285.6C383.279 283.36 380.399 282.08 377.359 282.08H263.359V302.88H372.559L413.759 350.16C415.679 352.4 418.559 353.68 421.679 353.68H453.679C457.839 365.12 468.799 373.44 481.839 373.44C498.479 373.44 511.999 359.92 511.999 343.36C511.999 326.72 498.479 313.2 481.839 313.2Z" fill="#C99B51"/>
</g>
<defs>
<clipPath id="clip0_87_251">
<rect width="512" height="512" fill="white"/>
</clipPath>
</defs>
</svg>
