<?xml version="1.0" encoding="UTF-8"?>
<svg xmlns="http://www.w3.org/2000/svg" width="512" height="512" viewBox="0 0 512 512" fill="none">
  <g clip-path="url(#clip0_68_34)">
    <path d="M0 246.23C0.37 242.4 0.77 238.57 1.09 234.74C5.3 184.47 22.7 139.21 53.73 99.5199C93.67 48.4199 145.54 15.8299 209.51 4.50991C290.43 -9.81008 362.75 10.1599 424.89 64.0099C469.8 102.93 497.75 152.33 507.84 210.92C520.38 283.77 504.68 350.62 460.16 409.81C421.17 461.65 369.23 493.92 305.62 506.86C293.09 509.41 280.16 509.99 267.41 511.49C266.45 511.6 265.51 511.82 264.56 511.99C258.77 511.99 252.99 511.99 247.2 511.99C246.57 511.82 245.94 511.53 245.3 511.51C228.72 510.97 212.37 508.72 196.29 504.73C136.21 489.83 87.49 457.55 50.47 408.03C21.48 369.25 5.12 325.46 1.09 277.13C0.78 273.41 0.36 269.7 0 265.99C0 259.4 0 252.81 0 246.23ZM493.87 256.03C494.47 127.14 389.41 18.0699 256.17 17.9799C125.54 17.8899 19.73 123.08 18.13 252.78C16.5 385.74 123.39 493.34 254.99 493.82C389.56 494.31 494.36 384.48 493.87 256.03Z" fill="#FFB718"></path>
    <path d="M288.75 349.11C289.29 359.28 291.63 368.27 300.02 374.65C301.51 375.78 302.8 377.25 303.95 378.73C306.21 381.65 305.66 383.14 302.09 383.89C300.44 384.24 298.74 384.47 297.06 384.47C270.63 384.51 244.2 384.51 217.76 384.46C215.69 384.46 213.56 384.2 211.56 383.67C208.86 382.95 208.2 380.87 209.93 378.68C211.28 376.97 212.81 375.32 214.52 373.99C222.54 367.77 224.39 358.98 225.18 349.1C223.86 349.1 222.72 349.1 221.58 349.1C185.17 349.1 148.77 349.1 112.36 349.1C104.88 349.1 101.21 345.4 101.21 337.86C101.21 274.32 101.21 210.79 101.21 147.25C101.21 140.06 104.64 136.6 111.8 136.59C208.05 136.59 304.31 136.59 400.56 136.59C407.4 136.59 410.68 139.84 410.68 146.6C410.68 210.64 410.68 274.67 410.68 338.71C410.68 345.57 407.08 349.1 400.11 349.1C364.2 349.1 328.29 349.1 292.39 349.1C291.22 349.11 290.04 349.11 288.75 349.11ZM114.57 308.35C208.91 308.35 303.08 308.35 397.31 308.35C397.31 255.25 397.31 202.35 397.31 149.45C302.95 149.45 208.77 149.45 114.57 149.45C114.57 202.54 114.57 255.36 114.57 308.35ZM256.1 340.06C259.13 340.02 262.08 337.03 262.03 334.03C261.98 330.93 259.11 328.15 256 328.18C252.76 328.21 250.14 330.87 250.17 334.12C250.2 337.26 253.03 340.1 256.1 340.06Z" fill="#FFB718"></path>
    <path d="M128.54 282.5C128.54 279.88 128.54 277.45 128.54 274.82C213.62 274.82 298.52 274.82 383.52 274.82C383.52 277.43 383.52 279.88 383.52 282.5C298.56 282.5 213.74 282.5 128.54 282.5Z" fill="#FFB718"></path>
    <path d="M128.56 296.83C128.56 294.34 128.56 291.9 128.56 289.23C213.53 289.23 298.42 289.23 383.49 289.23C383.49 291.74 383.49 294.18 383.49 296.83C298.57 296.83 213.67 296.83 128.56 296.83Z" fill="#FFB718"></path>
    <path d="M215.14 203.43C215.14 194.16 215.13 184.89 215.14 175.62C215.15 171.66 215.92 170.9 219.85 170.89C223.64 170.88 227.43 170.92 231.21 170.88C233.93 170.85 235.23 172.07 235.22 174.84C235.19 193.98 235.19 213.12 235.23 232.26C235.24 235.05 234.04 236.24 231.26 236.17C227.27 236.08 223.29 236.17 219.3 236.14C215.9 236.12 215.16 235.38 215.15 231.84C215.12 222.37 215.14 212.9 215.14 203.43Z" fill="#FFB718"></path>
    <path d="M256.05 260.74C256.05 263.32 256.05 265.68 256.05 268.2C213.58 268.2 171.24 268.2 128.63 268.2C128.63 265.81 128.63 263.4 128.63 260.74C171 260.74 213.41 260.74 256.05 260.74Z" fill="#FFB718"></path>
    <path d="M202.3 211.7C202.3 218.48 202.32 225.25 202.29 232.03C202.28 235.34 201.51 236.12 198.28 236.14C194.19 236.17 190.11 236.08 186.02 236.17C183.32 236.23 182.21 234.95 182.22 232.38C182.23 218.63 182.23 204.87 182.22 191.12C182.22 188.57 183.31 187.21 185.98 187.23C190.17 187.27 194.35 187.25 198.54 187.24C201.11 187.23 202.36 188.4 202.33 191.07C202.26 197.94 202.3 204.82 202.3 211.7Z" fill="#FFB718"></path>
    <path d="M169.38 220.05C169.38 224.04 169.4 228.02 169.37 232.01C169.35 235.35 168.62 236.12 165.39 236.14C161.21 236.17 157.02 236.11 152.84 236.16C150.45 236.19 149.33 234.98 149.32 232.71C149.29 224.14 149.29 215.57 149.32 207.01C149.33 204.73 150.5 203.59 152.89 203.63C157.07 203.7 161.26 203.73 165.44 203.62C168.24 203.55 169.45 204.71 169.39 207.51C169.32 211.68 169.38 215.87 169.38 220.05Z" fill="#FFB718"></path>
    <path d="M280.53 223.05C281.79 222.31 283.27 221.77 284.29 220.78C289.65 215.57 294.95 210.3 300.13 204.91C300.99 204.01 301.54 202.44 301.56 201.17C301.6 198.06 303.21 195.78 306.07 195.48C308.85 195.19 310.94 197.22 311.41 200.29C311.56 201.28 312.23 202.5 313.05 203.04C318.97 206.89 324.96 210.64 331.01 214.29C331.84 214.79 333.13 214.6 334.2 214.59C335.08 214.58 336.15 213.97 336.8 214.3C339.5 215.67 341.22 214.01 343.1 212.62C349.02 208.24 355.01 203.94 360.85 199.46C361.77 198.75 362.5 197.34 362.65 196.16C363.05 192.98 365.2 190.87 368.15 191.21C371.03 191.55 372.86 194.02 372.4 196.96C371.93 199.98 369.24 201.87 366.23 200.76C364.45 200.1 363.48 200.67 362.25 201.57C355.84 206.3 349.37 210.95 343.03 215.78C342.11 216.48 341.4 217.91 341.25 219.08C340.85 222.05 339.09 224.06 336.35 224.08C333.59 224.1 331.73 222.17 331.27 219.2C331.12 218.23 330.5 217.01 329.71 216.5C323.78 212.66 317.79 208.91 311.73 205.28C310.9 204.78 309.62 204.98 308.55 204.99C307.98 205 307.29 205.57 306.85 205.4C303.52 204.09 302.04 206.64 300.22 208.45C295.56 213.09 290.93 217.76 286.25 222.39C284.95 223.67 283.97 224.75 284.45 226.97C285.05 229.77 282.56 232.27 279.75 232.36C277.05 232.45 274.66 229.97 274.74 227.16C274.82 224.28 277.18 222.16 280.53 223.05Z" fill="#FFB718"></path>
  </g>
  <defs>
    <clipPath id="clip0_68_34">
      <rect width="512" height="512" fill="white"></rect>
    </clipPath>
  </defs>
</svg>
